<?xml version="1.0" encoding="UTF-8" standalone="no"?>
<svg width="151px" height="151px" viewBox="0 0 151 151" version="1.1" xmlns="http://www.w3.org/2000/svg" xmlns:xlink="http://www.w3.org/1999/xlink" xmlns:sketch="http://www.bohemiancoding.com/sketch/ns">
    <!-- Generator: Sketch 3.1 (8751) - http://www.bohemiancoding.com/sketch -->
    <title>path9106</title>
    <desc>Created with Sketch.</desc>
    <defs></defs>
    <g id="Page-1" stroke="none" stroke-width="1" fill="none" fill-rule="evenodd" sketch:type="MSPage">
        <path d="M0.383189558,1.86895298 L0.383189558,149.534718 L0.383189558,150.71875 L1.59493986,150.71875 L149.171439,150.71875 L150.38319,150.71875 L150.38319,149.534718 L150.38319,1.86895298 L150.38319,0.71875 L149.171439,0.71875 L1.59493986,0.71875 L0.383189558,0.71875 L0.383189558,1.86895298 Z M102.71875,15.3125 C103.88641,15.30938 105.06478,15.35763 106.25,15.40625 C115.30451,15.7776 121.28605,16.97431 126.65625,19.46875 C128.98154,20.54876 132.5466,23.2118 133.1875,24.34375 C133.72382,25.29121 132.62513,24.89515 130.4375,23.34375 C127.40416,21.19254 121.26994,18.98972 114.9375,17.8125 C113.10241,17.47134 113.40027,18.07826 115.46875,18.84375 C117.51753,19.60191 118.86846,20.50234 118.5,20.875 C118.3634,21.01325 117.27094,20.75539 116.0625,20.3125 C111.65977,18.69895 105.30553,17.16573 103.125,17.1875 L100.9375,17.21875 L104.0625,18.71875 C105.78907,19.53978 107.21875,20.39948 107.21875,20.625 C107.21875,21.22304 106.41001,21.12081 104.3125,20.28125 C99.76438,18.46071 95.55364,17.36629 93.59375,17.5 C92.50767,17.57411 91.625,17.73033 91.625,17.875 C91.62501,18.01967 92.4654,18.48914 93.53125,18.90625 C95.46615,19.6634 96.05786,20.12502 95.65625,20.53125 C95.53938,20.64957 93.4912,20.20808 91.125,19.5625 C87.3375,18.52916 86.63761,18.4294 85.21875,18.8125 C84.33229,19.05183 83.62285,19.35371 83.625,19.46875 C83.62719,19.58378 84.32124,19.95773 85.15625,20.3125 C86.60034,20.92599 87.20502,21.82659 86.1875,21.8125 C85.92584,21.80888 84.44403,21.46074 82.875,21.0625 C80.32723,20.41582 79.89776,20.40399 78.9375,20.90625 C78.08501,21.3522 77.72495,21.37248 77.28125,21 C76.56037,20.39482 76.86018,20.16289 79.625,19.1875 C86.8271,16.64671 94.54606,15.3342 102.71875,15.3125 L102.71875,15.3125 Z M39.71875,15.625 C42.16541,15.59884 44.74428,15.67937 46.90625,15.84375 C51.6533,16.20462 53.3715,16.51495 57.0625,17.6875 C61.86915,19.21452 64.77448,20.38359 65.09375,20.90625 C65.20482,21.08801 63.12051,21.22422 60.46875,21.21875 C57.81679,21.21329 54.92069,21.35386 54.03125,21.53125 C52.0173,21.93288 51.91287,21.39634 53.78125,20.28125 C55.27604,19.38913 55.34468,18.47484 53.90625,18.59375 C53.40341,18.63533 51.19756,19.03176 49,19.46875 C46.8024,19.90575 44.22306,20.3926 43.28125,20.53125 C41.75902,20.75534 41.62761,20.69032 42.0625,20.15625 C42.33158,19.82585 43.11872,19.4501 43.84375,19.3125 C44.56887,19.17489 45.1875,18.88962 45.1875,18.6875 C45.1875,17.90564 40.41923,18.38628 34.625,19.75 C33.20719,20.0837 33.63677,19.17728 35.3125,18.3125 C36.16999,17.87001 36.83553,17.43023 36.75,17.34375 C36.66453,17.25726 35.60823,17.33336 34.40625,17.53125 C32.71961,17.80893 31.69255,18.32924 29.90625,19.6875 C27.38197,21.60697 26.68785,21.67023 28,19.875 C28.54495,19.12936 28.65955,18.7163 28.34375,18.71875 C27.32285,18.72663 23.98174,20.59536 21.90625,22.3125 C19.5574,24.25586 19.28125,24.37429 19.28125,23.5625 C19.28124,22.79429 23.34073,19.36256 25.59375,18.21875 C26.6402,17.68747 28.07997,17.14428 28.8125,17 C29.545,16.85574 30.48767,16.59152 30.90625,16.40625 C31.89094,15.97044 35.64102,15.66861 39.71875,15.625 L39.71875,15.625 Z M102,22.65625 C102.3626,22.66397 102.95269,22.78625 103.4375,23 C104.41674,23.43171 104.55488,23.69831 104.375,24.5 C103.74901,27.28979 103.77155,27.7714 104.53125,29 C105.5228,30.6036 106.90806,31.29045 108.25,30.8125 C109.42841,30.39277 109.95413,29.008 109.90625,26.34375 C109.87461,24.58437 109.89872,24.49998 110.9375,24.5 C112.13304,24.49999 115.98871,25.5703 116.46875,26.03125 C116.63696,26.19275 116.45641,26.9182 116.09375,27.6875 C115.73113,28.45682 115.52128,29.17635 115.625,29.28125 C115.72859,29.38615 116.439,29.30184 117.15625,29.09375 C120.57103,28.10314 124.76541,29.51977 125.21875,31.8125 C125.673,34.11012 125.50098,35.08995 124.3125,36.40625 C123.1492,37.69447 123.131,37.71313 120.53125,37.46875 L117.90625,37.1875 L117.15625,39.28125 C115.89679,42.68636 114.55422,48.53687 113.71875,54.3125 C111.77255,67.76601 111.58307,71.93036 111.59375,101.875 C111.60116,122.24718 111.78053,124.20578 113.90625,126.09375 C114.62814,126.73488 115.38127,127.28124 115.59375,127.28125 C116.20197,127.28124 118.32013,126.08984 119.5,125.09375 C121.41181,123.47965 125.4054,124.28397 126.5,126.5 C127.15804,127.83209 127.09169,129.9962 126.375,131.03125 C125.3767,132.473 125.98216,132.84497 127.25,131.5625 C129.24492,129.54462 129.82362,124.39453 128.6875,118.96875 C128.3769,117.48571 128.15991,114.2832 128.15625,111.8125 L128.15625,107.3125 L126.90625,106.25 C124.22179,103.96035 121.55488,103.56224 119.28125,105.125 C117.46154,106.37576 117.32119,105.51145 119.0625,103.75 C120.22476,102.57439 120.37973,102.55268 122.78125,102.71875 C124.15645,102.81381 125.60253,103.02647 125.96875,103.1875 C126.90548,103.59926 126.85192,102.37393 125.6875,97.15625 C125.1643,94.81164 124.69238,92.54164 124.6875,92.09375 C124.68106,91.49113 124.01275,90.85948 122.0625,89.75 C119.39917,88.2348 118.67172,87.43014 119.375,86.71875 C119.8055,86.28323 121.14975,86.87835 122.40625,88.0625 C123.72085,89.30126 124.05518,88.96912 123.71875,86.75 C123.55018,85.63853 123.41441,84.03433 123.40625,83.1875 C123.39403,81.91612 123.48526,81.65624 124.09375,81.65625 C124.8793,81.65624 125.19794,82.42492 125.65625,85.78125 C125.79362,86.78685 126.01217,87.62538 126.15625,87.625 C126.30045,87.62463 126.90332,86.8302 127.5,85.875 C128.64229,84.04593 129.96524,82.88447 130.5,83.21875 C131.1396,83.61861 130.75664,84.45534 129.03125,86.5 C126.14578,89.91938 126.21578,89.67099 126.84375,93.375 C127.14886,95.17453 127.64182,98.20988 127.9375,100.09375 C128.23327,101.97766 128.64148,103.67038 128.84375,103.875 C129.08039,104.11438 129.55647,103.71099 130.15625,102.75 C131.36484,100.81335 132.0303,100.27665 132.6875,100.6875 C133.10128,100.94624 132.95161,101.33845 131.96875,102.59375 C131.2855,103.46632 130.47914,104.98838 130.1875,105.96875 C129.49213,108.30573 129.53368,114.29288 130.25,118.40625 C131.37278,124.8537 130.70593,129.26892 128.1875,132.3125 L127.03125,133.71875 L128.78125,134.21875 C130.97309,134.8395 133.0625,136.65273 133.0625,137.90625 C133.06255,139.21016 132.28985,139.02479 131.0625,137.46875 C129.67176,135.70568 128.31523,135.41412 121.84375,135.375 C116.7679,135.34432 114.0625,134.92776 114.0625,134.1875 C114.06254,134.00104 115.82355,133.92265 117.96875,134.03125 L121.84375,134.25 L119.9375,133.5 C118.89099,133.10024 117.33937,132.46191 116.46875,132.09375 C115.00697,131.4756 114.80475,131.49443 113.71875,132.0625 C113.07195,132.40082 112.5625,132.82498 112.5625,133.03125 C112.56247,133.44356 111.04114,133.54312 110.125,133.1875 C109.67254,133.01194 109.5823,132.55735 109.75,131.125 C109.94033,129.49907 109.86153,129.22424 109.0625,128.65625 C107.43429,127.49886 105.47531,127.17577 103.96875,127.8125 L102.625,128.375 L103.40625,130.40625 C104.49271,133.29784 104.43064,133.56098 102.4375,134.15625 C100.36538,134.77512 99.06255,134.37025 98.375,132.84375 C97.87585,131.7356 97.30042,131.7589 94.5,133.03125 C91.47225,134.40687 89.24831,132.9772 88.75,129.3125 C88.50626,127.51917 88.56839,127.32266 89.28125,127.09375 C89.7149,126.95455 90.25749,126.96176 90.46875,127.09375 C90.67983,127.22579 90.84375,127.16609 90.84375,126.96875 C90.84378,126.69263 86.71818,116.50563 84.34375,110.90625 C83.71063,109.41331 79.11644,97.36357 77.71875,93.5625 C76.14464,89.2817 74.08523,84.04032 69.28125,72.03125 C67.50281,67.5854 65.38233,62.12915 64.5625,59.90625 C63.74278,57.68331 62.88508,55.51716 62.6875,55.09375 C62.4899,54.67032 61.72273,52.78036 60.96875,50.875 C60.21475,48.96965 59.36015,46.84326 59.0625,46.1875 C58.76499,45.53176 57.90643,43.44727 57.1875,41.5625 C56.46861,39.67775 55.29545,36.81098 54.53125,35.15625 C53.16304,32.19374 52.92128,30.6717 53.8125,30.375 C54.0619,30.292 54.54649,30.79842 54.90625,31.5 C55.92442,33.48553 61.7805,47.92267 67.03125,61.4375 C71.2693,72.3456 73.38739,77.63312 75.65625,83 C76.68549,85.43463 77.53134,87.67155 77.53125,87.96875 C77.53101,88.88266 85.50339,109.11699 89.21875,117.625 C92.78247,125.78537 94.3691,129.89309 94.09375,130.34375 C93.95409,130.57232 93.49471,130.62872 93.09375,130.5 C92.31032,130.24849 92.02534,131.23451 92.75,131.6875 C93.22305,131.98334 95.78125,131.16432 95.78125,130.71875 C95.78124,130.5432 95.28413,129.22807 94.65625,127.8125 C93.50085,125.20772 93.25012,124.18749 93.8125,124.1875 C93.98241,124.1875 94.8211,124.54533 95.6875,124.96875 C96.55393,125.39218 97.82128,125.71874 98.46875,125.71875 C99.84878,125.71875 101.53125,124.25518 101.53125,123.03125 C101.53124,122.58499 101.64448,119.75357 101.84375,116.75 C102.37101,108.80317 102.69234,78.36296 102.28125,74.53125 C102.08812,72.73175 101.75796,67.1122 101.53125,62.03125 C100.80226,45.6943 99.60446,36.34781 98.0625,34.6875 C96.6867,33.20618 95.55831,33.17497 93.46875,34.53125 C91.7316,35.65886 91.56425,35.68706 90.21875,35.25 C88.50494,34.69335 87.53934,33.92039 86.78125,32.4375 C86.31718,31.52955 86.28366,31.0085 86.65625,29.4375 C87.1401,27.39716 87.75726,26.88175 90.59375,26.09375 C92.16128,25.65827 93.32241,26.03153 95.34375,27.625 C95.84284,28.01845 96.49301,28.31249 96.75,28.3125 C97.00699,28.31249 98.11683,27.12394 99.21875,25.625 C100.32072,24.12604 101.43732,22.79674 101.71875,22.6875 C101.78914,22.6602 101.87915,22.65369 102,22.65625 L102,22.65625 Z M45.71875,24.5 C46.44843,24.42681 47.52622,24.79689 48.4375,25.5 C49.69726,26.47198 49.79102,26.50266 51.1875,25.9375 C51.98204,25.61593 53.40979,25.25291 54.34375,25.125 C55.79979,24.92557 56.22613,25.04262 57.53125,25.96875 C59.75552,27.54711 60.8405,29.6866 60.53125,31.96875 C60.35561,33.26544 60.03514,33.9582 59.40625,34.375 C58.26241,35.13313 57.94716,34.87112 56.625,32.25 C54.80414,28.64028 54.66174,28.52861 53.03125,29.125 C51.46268,29.69874 51.2671,30.49786 52.21875,32.34375 C52.8651,33.59748 52.83869,33.68201 51.6875,33.90625 C49.25132,34.38081 46.97106,37.13047 46.0625,40.71875 C45.40259,43.32456 45.37699,45.11454 45.4375,64.6875 C45.47359,76.33142 45.71116,88.72556 45.9375,92.21875 C46.16384,95.71191 46.47643,104.21324 46.6875,111.09375 C47.15171,126.22098 46.8732,125.46353 51.625,123.78125 C55.2109,122.51179 56.73799,122.71283 58.78125,124.6875 C60.45257,126.30269 60.47416,128.06166 58.84375,130.0625 C57.2362,132.03516 55.70626,132.79622 53.875,132.5 C52.18243,132.22625 49.30961,132.85975 47.65625,133.875 C46.29502,134.71082 46.46391,134.70829 44.65625,133.71875 C43.21945,132.93225 43.22939,132.91716 43.46875,131.15625 C43.65211,129.8083 43.5203,128.90653 42.9375,127.53125 C42.08666,125.52341 41.73981,125.44319 39.4375,126.375 C37.62384,127.10907 37.01994,128.28072 37.375,130.40625 C37.56501,131.5438 37.46392,132.0659 36.78125,133 C35.79444,134.35004 35.33931,134.4429 33.65625,133.5625 C32.86498,133.1486 31.60763,132.94102 30,132.96875 C27.21579,133.01675 25.3552,132.16346 24.46875,130.40625 C23.39453,128.27676 24.71328,125.18764 27.1875,124 C28.39108,123.42228 28.59803,123.39629 30.34375,124.03125 C31.57027,124.4774 32.35044,124.58992 32.59375,124.34375 C32.95064,123.98278 33.04944,120.17591 33.59375,74.71875 C33.70533,65.4036 33.87665,56.65734 33.96875,55.28125 C34.4156,48.60426 34.27533,38.89266 33.71875,37.1875 C33.07464,35.21421 32.01917,34.69356 31.65625,36.15625 C31.20794,37.96288 26.94944,39.08971 25.625,37.75 C23.86125,35.96591 23.681,32.71675 25.21875,30.0625 C25.98706,28.73643 26.56992,28.28746 28.28125,27.625 C30.09577,26.92261 30.64299,26.85724 32.0625,27.21875 C33.61818,27.61499 33.79432,27.59054 35.40625,26.46875 C37.30984,25.14391 38.01335,24.9908 38.6875,25.8125 C39.04942,26.25356 38.9795,26.56766 38.34375,27.4375 C37.06671,29.18464 36.94577,31.05863 38,32.71875 C38.49321,33.49549 39.28559,34.22086 39.75,34.34375 C41.37944,34.77491 45.26306,31.50399 45.9375,29.125 C46.23721,28.06788 46.16981,27.57637 45.53125,26.53125 C45.1025,25.82954 44.83704,25.12183 44.96875,24.90625 C45.1043,24.68439 45.387,24.53327 45.71875,24.5 L45.71875,24.5 Z M70.21875,24.53125 C70.25728,24.53539 70.32666,24.57785 70.375,24.59375 C71.01833,24.80535 72.13973,28.07271 72.1875,29.875 C72.26393,32.76119 72.41602,32.96874 74.96875,32.96875 C77.21325,32.96874 77.27908,32.98315 76.5625,33.65625 C76.15669,34.03732 75.274,34.68824 74.59375,35.09375 C73.51291,35.73814 73.34375,36.03543 73.34375,37.4375 C73.34377,38.61824 73.14632,39.07513 72.65625,39.25 C72.28994,39.38069 71.81606,39.57739 71.59375,39.6875 C70.92173,40.02031 70.66234,39.47858 70.65625,37.625 C70.65307,36.65468 70.56223,35.65429 70.40625,35.40625 C70.25026,35.15819 69.18021,34.70068 68.03125,34.40625 C65.34316,33.71735 65.26825,32.90726 67.84375,32.375 C68.89023,32.15875 69.96234,31.85549 70.21875,31.6875 C70.6854,31.38169 70.6154,27.96643 70.09375,25.5 C69.94065,24.77613 69.94866,24.50225 70.21875,24.53125 L70.21875,24.53125 Z M85.28125,27.15625 C85.43767,27.13424 85.53125,27.21103 85.53125,27.40625 C85.53124,27.53234 85.16784,28.12519 84.75,28.71875 C83.35291,30.70346 82.45418,34.42314 82.71875,37.09375 C82.91471,39.07179 82.83901,39.49999 82.375,39.5 C82.0646,39.5 81.5651,39.19968 81.21875,38.8125 C80.42518,37.9255 80.38541,34.33275 81.15625,32.96875 C81.45541,32.43947 81.68009,31.64226 81.6875,31.21875 C81.70623,30.14579 84.43611,27.27513 85.28125,27.15625 L85.28125,27.15625 Z M35.875,27.9375 C35.54364,27.93751 35.28125,28.22729 35.28125,28.5625 C35.28124,28.89771 35.50145,29.08381 35.75,29 C36.45555,28.7621 36.54702,27.93748 35.875,27.9375 L35.875,27.9375 Z M63.1875,30.28125 C63.44927,30.30441 63.45036,30.53128 63.28125,31.09375 C62.64702,33.20293 62.57465,37.56852 63.15625,38.84375 C63.4732,39.53873 63.94332,40.70608 64.21875,41.5 C64.79427,43.15874 64.96669,43.20692 67.1875,42.1875 C70.67323,40.58733 78.5408,39.94534 83.125,40.875 C84.22176,41.09741 86.34599,44.06524 86.0625,44.96875 C85.93345,45.37985 86.03359,45.65624 86.3125,45.65625 C86.57076,45.65625 86.66268,45.77332 86.53125,45.90625 C86.39981,46.03919 83.25438,46.18928 79.53125,46.25 C74.85702,46.32622 71.96441,46.55552 70.125,47 C65.54631,48.10641 64.1284,48.16194 63.3125,47.25 C62.17468,45.97834 61.55104,42.45715 61.59375,37.40625 C61.64075,31.85372 61.87982,30.50027 62.84375,30.3125 C62.99242,30.28352 63.10028,30.27355 63.1875,30.28125 L63.1875,30.28125 Z M19.71875,36.6875 C19.92338,36.60235 20.07959,37.76667 20.09375,40.28125 C20.10625,42.49357 20.26817,45.19145 20.46875,46.25 C20.66932,47.30852 20.99296,49.24676 21.15625,50.5625 C21.42028,52.68934 21.76843,53.77941 22.0625,53.3125 C22.38934,52.79362 24.86007,49.2415 25.1875,48.8125 C25.40305,48.53019 26.37088,47.5496 27.3125,46.625 C29.18293,44.78855 30.20159,44.86533 28.875,46.75 C28.43067,47.38117 28.0625,47.99648 28.0625,48.125 C28.0625,48.71304 24.83506,53.03266 23.46875,54.28125 C21.23379,56.32365 20.31454,58.98105 20.625,62.40625 C21.0316,66.89132 21.95238,68.88024 22.53125,66.53125 C23.17486,63.91987 25.76883,58.75506 26.6875,58.28125 C27.11655,58.05997 27.77304,57.5109 28.125,57.0625 C29.16027,55.74355 29.30657,56.61583 28.40625,58.625 C27.38553,60.90293 27.06253,64.8828 27.6875,67.21875 C28.90649,71.77444 28.37414,75.81606 26.375,77.28125 C25.10166,78.21448 23.87803,78.39173 22.40625,77.84375 C20.97443,77.31068 19.99408,75.59646 20.4375,74.34375 C21.12963,72.38832 21.2269,69.92874 20.65625,68.8125 C20.3377,68.18953 19.80958,66.32042 19.46875,64.65625 C18.83431,61.55926 18.847,59.8189 19.65625,54.5625 C20.02319,52.17968 19.98311,51.12819 19.4375,48.0625 C18.9525,45.33791 18.90188,43.44878 19.09375,40.6875 C19.2741,38.09194 19.51415,36.77265 19.71875,36.6875 L19.71875,36.6875 Z M128.8125,39.875 C129.13958,39.87499 130.4375,42.3337 130.4375,42.96875 C130.4375,43.76279 129.22659,43.27907 128.875,42.34375 C128.42338,41.14211 128.39055,39.87499 128.8125,39.875 L128.8125,39.875 Z M126.875,40.28125 C127.10844,40.29713 127.20158,40.61721 127.09375,41.1875 C126.96563,41.86565 126.72395,42.04818 126.1875,41.90625 C125.36646,41.68906 125.17064,42.76795 125.96875,43.09375 C126.23431,43.20212 126.26143,43.29554 126.03125,43.3125 C124.93883,43.39304 124.82131,42.2498 125.8125,41.09375 C126.28044,40.54796 126.64162,40.26536 126.875,40.28125 L126.875,40.28125 Z M72.875,42.59375 C72.82948,42.59408 72.78569,42.62021 72.75,42.65625 C72.6148,42.79295 72.61218,43.27938 72.75,43.71875 C73.02224,44.58633 73.72822,44.81136 73.71875,44.03125 C73.71127,43.4132 73.19354,42.59144 72.875,42.59375 L72.875,42.59375 Z M75.34375,43.03125 C75.27675,43.05689 75.25,43.18961 75.25,43.40625 C75.24998,43.73085 75.34729,44.12689 75.5,44.28125 C75.65256,44.43562 75.8573,44.33722 75.9375,44.09375 C76.0178,43.85028 75.88905,43.48552 75.65625,43.25 C75.50082,43.09281 75.41075,43.00561 75.34375,43.03125 L75.34375,43.03125 Z M77.75,43.09375 C77.61359,43.09985 77.53125,43.25244 77.53125,43.5 C77.5312,43.83004 77.69696,44.12499 77.90625,44.125 C78.11552,44.125 78.28125,43.94918 78.28125,43.75 C78.2813,43.55077 78.11554,43.28708 77.90625,43.15625 C77.85395,43.12353 77.79553,43.09171 77.75,43.09375 L77.75,43.09375 Z M79.9375,43.34375 C79.85521,43.34376 79.8125,43.61993 79.8125,43.9375 C79.81254,44.25508 79.98486,44.49999 80.1875,44.5 C80.39035,44.5 80.43298,44.25506 80.3125,43.9375 C80.19203,43.61995 80.01975,43.34374 79.9375,43.34375 L79.9375,43.34375 Z M81.875,43.71875 C81.78262,43.71875 81.6875,43.91328 81.6875,44.125 C81.68747,44.33672 81.90343,44.49999 82.125,44.5 C82.34672,44.5 82.41053,44.33671 82.28125,44.125 C82.1519,43.9133 81.96727,43.71874 81.875,43.71875 L81.875,43.71875 Z M128.96875,43.78125 C129.1391,43.77944 129.30748,43.79654 129.5,43.8125 L131,43.9375 L129.78125,44.59375 C128.36839,45.37524 127.91643,45.42288 127.5625,44.84375 C127.17943,44.21663 127.77708,43.79396 128.96875,43.78125 L128.96875,43.78125 Z M80.71875,47.09375 C80.9477,47.08665 81.18914,47.09441 81.4375,47.09375 C84.03957,47.08685 84.5043,47.17583 85.375,48 C86.3267,48.90071 86.55743,48.93749 91.9375,48.9375 L97.5,48.9375 L97.625,49.96875 C97.72596,50.85128 97.56424,51.06208 96.3125,51.46875 C95.51565,51.72764 94.57667,52.15013 94.25,52.4375 C93.92337,52.72486 92.36955,53.11972 90.8125,53.34375 C83.5954,54.38225 81.85366,55.17127 85.21875,55.78125 C87.25262,56.14992 88.37254,55.93836 92.78125,54.46875 C96.19458,53.33092 97.49062,53.28401 96,54.34375 C95.58182,54.6411 94.80447,55.26027 94.28125,55.71875 C93.75802,56.17727 92.79175,56.77999 92.125,57.0625 C90.80022,57.62383 86.74928,57.81642 84.9375,57.40625 C83.85738,57.16175 83.83864,57.18356 84.53125,57.75 C85.57368,58.60257 87.48882,58.883 90.53125,58.625 C92.86035,58.42748 93.13899,58.4965 93.03125,59.0625 C92.95209,59.47818 92.33609,59.81399 91.25,60.03125 C90.32786,60.21571 89.09303,60.71278 88.5,61.15625 C86.61623,62.56506 82.61856,62.41153 78.59375,60.75 C77.06685,60.11963 74.1429,57.30378 72.75,55.09375 C71.29145,52.77953 69.89353,48.65453 70.3125,47.96875 C70.86441,47.06552 71.72507,47.90088 72.1875,49.78125 C72.75364,52.08351 74.24364,55.37001 75.03125,56.03125 C76.00696,56.85037 75.77936,55.51783 74.5,53.03125 C73.87684,51.82011 73.22939,50.31057 73.09375,49.625 C72.84747,48.3789 72.88061,48.375 74.46875,48.375 C75.34248,48.37501 76.58016,48.06931 77.25,47.71875 C77.96822,47.34286 79.11636,47.14342 80.71875,47.09375 L80.71875,47.09375 Z M126.96875,47.3125 C127.1218,47.29523 127.28465,47.34571 127.40625,47.46875 C127.66998,47.7355 127.5991,48.26514 127.15625,49.15625 C125.94772,51.58795 125.875,51.7856 125.875,52.78125 L125.875,53.78125 L127.5625,52.375 C129.19637,51.02074 130.38564,50.77055 130.6875,51.6875 C130.76685,51.92878 130.16963,52.50563 129.375,53 C128.58045,53.49439 127.22684,54.58609 126.34375,55.40625 C124.99827,56.65597 124.6515,57.25263 124.28125,59.15625 C123.85828,61.33063 123.50028,61.88133 123,61.0625 C122.77877,60.70051 122.91936,59.34196 123.40625,56.4375 C123.60832,55.23209 123.40635,54.78586 121.53125,52.375 C119.60396,49.89723 119.47854,49.6908 120.15625,49.375 C121.08878,48.94043 121.84591,49.55265 122.84375,51.53125 C123.25506,52.34679 123.73898,52.90536 123.9375,52.78125 C124.13604,52.65713 124.58228,51.62753 124.90625,50.5 C125.42767,48.68568 126.30527,47.38724 126.96875,47.3125 L126.96875,47.3125 Z M79.9375,48.1875 C79.68361,48.19045 79.45146,48.21774 79.21875,48.25 C77.92803,48.42894 77.50298,48.62491 77.59375,49.09375 C77.68765,49.5787 78.09054,49.69352 79.46875,49.59375 C80.54672,49.51571 81.35933,49.6249 81.53125,49.90625 C81.89282,50.49795 80.95668,51.11536 80.09375,50.84375 C79.22822,50.5713 77.8433,51.00773 78.125,51.46875 C78.66153,52.34695 83.58604,51.46265 83.6875,50.46875 C83.71894,50.16113 83.76035,49.71209 83.78125,49.46875 C83.83693,48.82179 81.71462,48.16688 79.9375,48.1875 L79.9375,48.1875 Z M68.15625,48.375 C68.8277,48.37501 69.21989,48.87321 70.0625,50.78125 C72.55649,56.42872 73.03944,57.23488 75.15625,59.15625 C77.61691,61.38977 78.94488,62.15204 81.25,62.75 C82.13832,62.98042 82.91517,63.35075 82.96875,63.5625 C83.15237,64.28775 80.75864,64.11814 78.21875,63.21875 C75.2435,62.16516 71.69912,59.55767 70.25,57.375 C68.81643,55.21595 66.78679,49.97262 67.0625,49.09375 C67.19638,48.66716 67.66018,48.375 68.15625,48.375 L68.15625,48.375 Z M64.875,49.0625 C65.34319,49.09733 65.84441,49.71511 66.125,50.78125 C67.49805,55.99976 71.63371,62.17531 74.9375,63.9375 C75.72233,64.35615 76.40625,64.80521 76.40625,64.96875 C76.40624,65.13232 76.36488,65.25046 76.3125,65.21875 C76.26024,65.18703 75.7028,65.09147 75.09375,65 C73.6267,64.77968 70.31671,62.89718 69.09375,61.5625 C67.11557,59.40367 63.63405,51.5371 64,50.0625 C64.17329,49.36405 64.51074,49.03542 64.875,49.0625 L64.875,49.0625 Z M52.78125,50.9375 C53.15464,50.92725 53.76313,50.99609 54.3125,51.125 C55.04505,51.29695 56.46548,51.43243 57.46875,51.4375 C58.72238,51.4438 59.28507,51.57561 59.21875,51.90625 C59.16558,52.1709 59.30139,52.77278 59.5625,53.25 C60.64145,55.22271 58.46098,58.97542 55.15625,60.84375 C53.09965,62.00644 51.55621,62.15536 51.71875,61.15625 C51.77897,60.78575 51.69538,60.26463 51.53125,60 C51.02787,59.18831 51.53658,58.85113 54.40625,58.15625 C57.37164,57.43819 59.08301,56.50559 56.40625,57.0625 C53.75837,57.61343 51.47922,57.47691 51.34375,56.78125 C51.24628,56.2813 51.74347,56.10663 53.875,55.90625 C55.32099,55.77029 57.11409,55.41534 57.875,55.09375 C60.04064,54.17847 59.49522,53.23041 57.28125,54.0625 C55.90799,54.57869 51.88685,54.91629 51.34375,54.5625 C50.48688,54.00428 51.27573,52.96551 52.5625,52.9375 C53.6994,52.91275 53.68885,52.89704 52.875,52.5 C51.94262,52.04507 51.77335,51.22587 52.53125,50.96875 C52.59676,50.94656 52.65673,50.94091 52.78125,50.9375 L52.78125,50.9375 Z M54.46875,52.59375 C54.06401,52.63615 53.98594,52.76829 54.25,52.9375 C54.72214,53.24016 56.21875,53.06874 56.21875,52.71875 C56.21877,52.6376 55.649,52.5905 54.96875,52.59375 C54.75859,52.59474 54.60366,52.5796 54.46875,52.59375 L54.46875,52.59375 Z M61.46875,55.84375 C61.50118,55.83851 61.50286,55.85723 61.53125,55.875 C61.7024,55.98197 62.14427,56.98478 62.5,58.09375 C62.85564,59.20273 63.43476,60.89106 63.8125,61.84375 C64.19034,62.79645 65.662,66.49471 67.0625,70.09375 C68.4631,73.69279 69.78334,76.82772 69.96875,77.0625 C70.15419,77.29729 70.52087,78.25787 70.8125,79.1875 C71.31787,80.79832 74.66112,89.09614 75.8125,91.625 C77.26112,94.80666 80.96875,104.59378 80.96875,105.25 C80.96872,105.65897 81.21946,106.20706 81.53125,106.46875 C82.18798,107.02007 84.375,113.71138 84.375,115.15625 C84.37502,115.85206 83.60323,116.91383 81.71875,118.8125 C80.26449,120.27765 78.91824,121.81388 78.6875,122.25 C78.45676,122.68616 78.15313,124.50217 78.03125,126.25 L77.8125,129.40625 L81.15625,132.5625 C83.68165,134.95259 84.30486,135.78977 83.84375,135.96875 C83.47076,136.11352 82.68039,135.72361 81.8125,135 C80.49366,133.90039 79.49344,133.63814 80.5,134.65625 C81.24855,135.41354 81.01825,136.1975 80.09375,136.0625 C79.45661,135.96944 78.78266,135.02303 77.34375,132.1875 C76.19394,129.9215 75.30417,128.53716 75.09375,128.75 C74.88335,128.96284 75.43507,130.42615 76.4375,132.40625 C77.3494,134.20775 77.94427,135.83515 77.78125,136 C77.17088,136.61738 76.18268,135.39558 75.28125,132.90625 C74.37259,130.397 73.71875,129.61125 73.71875,131.0625 C73.71881,131.46005 73.99858,132.39623 74.3125,133.15625 C75.06188,134.97049 75.03711,136.49998 74.28125,136.5 C73.96077,136.50001 73.63585,136.29588 73.5625,136.03125 C72.48462,132.14548 72.09591,131.45828 71.375,132.1875 C71.12479,132.44061 71.1851,133.18862 71.59375,134.40625 C72.28597,136.46879 71.89384,137.50611 70.9375,136.125 C70.38815,135.33156 70.37418,135.32887 70,136 C69.69899,136.53978 69.46863,136.59404 69.125,136.25 C68.54656,135.67104 69.22525,132.67899 70.5625,129.875 C71.85259,127.17 73.69688,121.77964 73.46875,121.40625 C73.3664,121.23864 72.87008,121.09373 72.34375,121.09375 C70.58194,121.09375 65.59569,119.14005 61.75,116.9375 C58.92633,115.32031 57.22655,114.01934 55.1875,111.875 C52.33496,108.87513 52.18189,108.10917 54.40625,108.53125 C55.39706,108.71927 55.95239,109.22779 56.9375,110.75 C58.4653,113.11058 58.97775,113.01397 57.59375,110.625 C56.47542,108.69479 56.2937,107.62499 57.15625,107.625 C57.68316,107.62501 58.23869,108.55252 59.3125,111.40625 C59.49652,111.89533 59.80374,112.21643 60,112.09375 C60.20039,111.9685 59.91491,110.91175 59.375,109.71875 C58.40572,107.5773 58.38441,106.46873 59.34375,106.46875 C59.65556,106.46875 60.15098,107.39747 60.53125,108.78125 C60.88042,110.05147 61.31886,111.09374 61.53125,111.09375 C61.74373,111.09376 61.84557,110.69508 61.75,110.21875 C61.65454,109.74243 61.50175,108.8837 61.375,108.28125 C61.15249,107.22416 61.64026,106.09374 62.34375,106.09375 C62.52741,106.09375 62.6875,107.00108 62.6875,108.125 C62.68751,109.24895 62.93732,110.51688 63.21875,110.90625 C63.67481,111.53708 63.7344,111.36585 63.9375,109.375 C64.15627,107.23122 64.79983,106.1358 65.46875,106.8125 C65.64271,106.98848 65.58208,107.88613 65.34375,108.78125 C65.10542,109.67636 64.9893,110.48807 65.09375,110.59375 C65.45294,110.95701 66.01959,110.34183 66.28125,109.28125 C66.62242,107.89799 68.26376,105.68749 68.96875,105.6875 C69.71017,105.68749 69.66251,106.17802 68.8125,107.28125 C66.85096,109.82735 66.32254,112.42805 67.53125,113.5 C69.1059,114.89662 70.74664,115.40176 73.09375,115.25 C75.77323,115.07677 77.30557,114.1964 78.96875,111.71875 C79.88891,110.34811 80.00394,109.77313 80,107.25 C79.99585,104.55939 79.89878,104.21498 78.53125,102.0625 C76.97608,99.6148 69.19186,91.36049 68.71875,91.65625 C68.56515,91.75227 68.54784,92.52584 68.65625,93.34375 C68.76473,94.16167 68.62692,96.08291 68.375,97.59375 C67.9939,99.87902 67.8234,100.34373 67.21875,100.34375 C66.3431,100.34377 66.33007,100.25729 67.0625,97.0625 C67.63388,94.57044 67.51233,89.56249 66.875,89.5625 C66.72406,89.5625 66.48425,90.97897 66.375,92.75 C66.17854,95.93481 65.57822,98.02977 64.71875,98.3125 C63.93121,98.57153 63.7581,96.94222 64.4375,95.625 C65.0904,94.35919 65.78378,88.49598 65.4375,87.15625 C65.06337,85.70939 64.67655,86.59605 64.46875,89.375 C64.12709,93.94473 61.68877,98.33004 60.28125,96.90625 C59.98189,96.60349 60.10633,96.17091 60.71875,95.40625 C62.11045,93.66851 63.14342,91.10443 63.4375,88.625 C63.72254,86.22123 63.621,85.31249 63.03125,85.3125 C62.84433,85.31251 62.69059,85.95608 62.6875,86.75 C62.67631,89.64798 60.13444,95.31249 58.84375,95.3125 C58.18256,95.31251 58.08096,95.15118 58.28125,94.34375 C58.49821,93.46949 58.41161,93.38608 57.59375,93.59375 C55.93339,94.01527 56.15943,92.83348 58.09375,90.90625 C59.09532,89.90838 60.30872,88.27043 60.78125,87.25 L61.625,85.375 L60.6875,82.75 C59.25245,78.79795 58.72846,74.23852 59.03125,68.4375 C59.17355,65.71034 59.44621,62.44424 59.65625,61.125 C60.06828,58.53715 60.98253,55.92241 61.46875,55.84375 L61.46875,55.84375 Z M76.9375,57.4375 C76.83628,57.4599 76.7805,57.5496 76.78125,57.6875 C76.78537,58.46877 79.30454,59.96946 81.46875,60.5 C83.89951,61.09586 87.03125,61.2107 87.03125,60.6875 C87.03126,60.47579 86.47705,60.28123 85.78125,60.28125 C84.44375,60.28126 80.01127,58.88092 77.96875,57.8125 C77.40023,57.51516 77.10613,57.40014 76.9375,57.4375 L76.9375,57.4375 Z M91.25,61.59375 C91.55738,61.5044 92.27987,62.26837 93.125,63.625 C93.85752,64.80087 94.76848,66.22269 95.15625,66.84375 C95.81326,67.89593 95.82663,68.0787 95.25,68.96875 C94.40863,70.26782 93.4853,70.15982 91.84375,68.59375 C90.36468,67.18276 89.71875,65.84507 89.71875,64.28125 C89.71876,62.75762 90.58937,63.40709 90.9375,65.1875 C91.10646,66.0521 91.53352,66.99796 91.875,67.28125 C92.42801,67.73988 92.47321,67.66935 92.21875,66.8125 C91.88336,65.68338 91.2437,63.04977 91.125,62.28125 C91.06319,61.88114 91.11032,61.63438 91.25,61.59375 L91.25,61.59375 Z M119.4375,63.0625 C119.64493,63.04939 119.8691,63.13109 120.15625,63.3125 C120.55499,63.56439 121.31761,63.74999 121.84375,63.75 C122.84545,63.75 123.01339,64.23591 122.5625,65.9375 C122.24466,67.13757 121.73642,67.05319 119.8125,65.375 C118.28383,64.04156 118.21656,63.8753 118.8125,63.375 C119.06944,63.15924 119.2301,63.0756 119.4375,63.0625 L119.4375,63.0625 Z M129.34375,63.28125 C131.29501,63.28124 132.24086,63.71647 131.78125,64.46875 C131.61282,64.74446 130.86081,64.81368 129.6875,64.65625 C127.75119,64.39643 126.21875,64.93282 126.21875,65.84375 C126.21871,66.61581 127.2567,66.85813 127.78125,66.21875 C128.29432,65.59355 130.77049,65.46963 130.84375,66.0625 C130.86987,66.27423 130.91138,66.64161 130.9375,66.90625 C130.96367,67.17089 131.56974,67.4649 132.25,67.53125 C133.7449,67.67705 133.79449,68.12132 132.46875,69 C131.5881,69.58365 131.55092,69.7235 132.09375,70.125 C132.4301,70.37379 132.71875,70.95324 132.71875,71.40625 C132.71873,72.50293 132.42173,72.44052 130.53125,70.96875 C129.65003,70.28273 128.3146,69.27928 127.5625,68.75 C124.69965,66.73526 124.64974,66.65884 124.90625,65.625 C125.25062,64.23719 127.0734,63.28124 129.34375,63.28125 L129.34375,63.28125 Z M69.28125,63.375 C69.33473,63.36317 69.39617,63.375 69.46875,63.375 C69.82623,63.37501 70.54298,63.81605 71.09375,64.40625 C71.97427,65.34998 72.12522,65.87631 72.25,68.65625 C72.42079,72.46045 71.97566,72.95291 71.125,69.90625 C70.91814,69.16526 70.31993,67.36651 69.78125,65.9375 C69.0159,63.90711 68.90692,63.4578 69.28125,63.375 L69.28125,63.375 Z M60.9375,64.28125 C60.47711,64.39715 60.3181,64.90427 60.78125,65.46875 C61.39743,66.21979 63.06769,66.20598 64.03125,65.46875 C64.73742,64.92845 64.7431,64.91795 63.71875,64.90625 C63.12946,64.89952 62.27106,64.70007 61.84375,64.46875 C61.58443,64.32837 61.36208,64.28274 61.15625,64.28125 C61.07905,64.28069 61.00327,64.26469 60.9375,64.28125 L60.9375,64.28125 Z M87.5,64.90625 C87.69331,64.87372 87.91313,65.07952 88.09375,65.5625 C88.23227,65.93299 89.11319,67.45553 90.0625,68.9375 C91.75082,71.57314 91.97674,72.52318 91.09375,73.09375 C90.853,73.2493 90.49054,73.33807 90.28125,73.3125 C88.8297,73.13503 88.1875,72.86952 88.1875,72.4375 C88.18754,72.16319 87.86664,71.51162 87.46875,71 C86.98926,70.38332 86.78993,69.63505 86.875,68.75 C86.94545,68.01573 87.01786,66.8443 87.03125,66.15625 C87.04585,65.40092 87.25145,64.94808 87.5,64.90625 L87.5,64.90625 Z M85.375,64.9375 C85.68626,64.87742 85.58963,65.66298 85.09375,67.3125 C84.00027,70.94954 84.14442,74.82159 85.46875,78.6875 C86.64123,82.11014 86.74196,82.36236 90.53125,86.46875 C93.45204,89.63403 96.1195,93.46653 98.1875,97.59375 L99.59375,100.4375 L99.78125,106.59375 C99.90543,110.57261 99.80613,113.25952 99.53125,114.1875 C99.21086,115.26939 99.21962,115.7894 99.5625,116.4375 C99.81264,116.91027 99.90027,117.42186 99.75,117.5625 C99.59973,117.70315 99.43622,117.60556 99.34375,117.34375 C99.2512,117.08193 98.85285,116.47918 98.46875,116 C97.21398,114.43436 97.20152,115.6327 98.4375,118.25 C99.39019,120.26749 99.57407,121.0182 99.3125,121.8125 C98.78872,123.40293 97.78934,123.33244 97.09375,121.625 C95.48957,117.68708 94.14402,114.73079 93.84375,114.40625 C93.30379,113.82245 92.9179,114.54084 93.375,115.28125 C94.06348,116.39641 96.2204,121.9649 96.03125,122.15625 C95.60819,122.58418 95.04534,121.69758 94.28125,119.375 C93.82932,118.0012 93.29487,116.84374 93.125,116.84375 C92.4862,116.84376 92.39,118.11636 92.9375,119.1875 C93.59247,120.46846 93.67569,121.49999 93.125,121.5 C92.9157,121.49999 92.72792,121.34627 92.71875,121.1875 C92.70946,121.02874 92.49541,120.02727 92.21875,118.96875 C91.79211,117.33684 91.80925,116.77021 92.28125,115.15625 C92.59622,114.0796 92.75072,112.66995 92.625,111.875 C92.33944,110.06867 92.64441,109.73065 93.75,110.78125 C94.44604,111.4427 94.65625,111.50136 94.65625,111.03125 C94.65628,110.70273 94.38561,110.20872 94.0625,109.9375 C93.5714,109.52515 93.51976,108.75255 93.71875,105.34375 L93.96875,101.28125 L92.5625,99.0625 C91.79676,97.84517 90.9756,96.84373 90.75,96.84375 C90.5244,96.84373 90.62353,97.17664 90.96875,97.5625 C91.31392,97.94832 91.85515,99.11311 92.15625,100.125 C92.6513,101.78875 92.644,102.20311 92,104.75 C91.19457,107.93525 90.13322,110.21331 89,111.25 C88.08274,112.08909 88.10593,112.09252 86.4375,107.8125 C85.85977,106.33055 84.99305,104.26397 84.5,103.21875 C84.00693,102.17353 83.625,101.13924 83.625,100.90625 C83.62503,100.67324 82.99226,99.01029 82.25,97.21875 C78.85029,89.01397 76.78125,83.76318 76.78125,83.4375 C76.78124,83.24223 77.11267,83.17054 77.53125,83.28125 C78.65327,83.57806 78.43505,82.79604 77.15625,81.875 C75.00871,80.32814 74.31533,78.58146 74.3125,74.9375 C74.30978,71.39532 75.06832,68.59972 76.40625,67.375 C77.57634,66.30386 77.68257,66.95142 76.65625,69 C74.88663,72.5325 74.97586,77.87817 76.84375,79.90625 C77.91333,81.06751 78.10723,80.60125 77.375,78.75 C76.27888,75.97905 76.74531,71.02527 78.40625,67.65625 C78.89488,66.66503 79.61825,65.79316 80,65.71875 C80.54812,65.61194 80.6152,65.7497 80.375,66.3125 C80.20778,66.70447 79.75251,67.96058 79.34375,69.125 C78.45453,71.65788 78.22114,76.8983 78.96875,77.65625 C79.36242,78.05532 79.41977,77.65082 79.375,75.3125 C79.31289,72.06633 80.07647,69.28359 81.5625,67.3125 C82.84769,65.60765 83.24644,65.73977 82.59375,67.65625 C81.24814,71.60669 81.31723,77.47511 82.71875,79.875 C83.5948,81.37515 84.19953,81.42803 83.4375,79.9375 C82.71854,78.53114 81.93998,73.65931 82.1875,72.0625 C82.43105,70.49171 84.0503,66.34375 84.71875,65.53125 C85.02801,65.15534 85.23354,64.96481 85.375,64.9375 L85.375,64.9375 Z M25.4375,65.4375 C24.91745,65.40214 24.23139,65.72524 24.4375,66.0625 C24.54114,66.23217 25.00534,66.27059 25.4375,66.15625 C25.90248,66.03326 26.07736,65.79846 25.875,65.59375 C25.774,65.49166 25.61082,65.44926 25.4375,65.4375 L25.4375,65.4375 Z M117,66.0625 C117.09974,66.04361 117.18389,66.0625 117.28125,66.0625 C118.16748,66.0625 119.75,67.06748 119.75,67.625 C119.75004,67.98632 118.62039,67.99325 116.625,67.6875 C116.04939,67.59931 115.5625,67.40532 115.5625,67.25 C115.5625,66.76751 116.30179,66.19473 117,66.0625 L117,66.0625 Z M122.3125,68.375 C123.42643,68.37499 124.32368,70.02825 123.71875,71 C123.15326,71.90834 122.40015,71.93901 121.40625,71.09375 C120.00455,69.90157 120.49875,68.37499 122.3125,68.375 L122.3125,68.375 Z M63.28125,68.5625 C61.90912,68.60361 61.50941,68.97035 62.1875,69.65625 C62.69617,70.17083 65.9375,69.73865 65.9375,69.15625 C65.9375,68.7668 65.33899,68.61349 63.90625,68.5625 C63.67021,68.5541 63.47724,68.55663 63.28125,68.5625 L63.28125,68.5625 Z M117.875,68.71875 C117.98446,68.7212 118.0344,68.76657 118.0625,68.8125 C118.19208,69.02459 118.26085,69.24023 118.1875,69.28125 C118.11421,69.32229 117.34602,69.90789 116.46875,70.59375 C115.59159,71.2796 114.69688,71.84373 114.46875,71.84375 C113.91004,71.84375 113.48607,70.70514 113.90625,70.3125 C114.59133,69.67229 117.10809,68.7016 117.875,68.71875 L117.875,68.71875 Z M126.09375,69.53125 C126.1612,69.51605 126.2405,69.53125 126.34375,69.53125 C127.14254,69.53125 131,72.63484 131,73.28125 C131,74.43993 130.22812,74.11765 128.0625,72.0625 C126.08223,70.18335 125.6217,69.63763 126.09375,69.53125 L126.09375,69.53125 Z M24.0625,69.78125 C23.45317,69.82532 22.75,70.06606 22.75,70.375 C22.75001,70.58672 23.12289,70.65892 23.59375,70.53125 C24.06466,70.4036 24.58071,70.3154 24.75,70.3125 C24.91928,70.30961 24.95579,70.15207 24.84375,69.96875 C24.74272,69.8035 24.42805,69.7548 24.0625,69.78125 L24.0625,69.78125 Z M29.625,70.28125 C30.26632,70.28325 31.10872,71.87744 31.03125,72.90625 C30.98312,73.5458 31.26623,75.02682 31.65625,76.1875 C32.35185,78.25757 32.3022,79.53124 31.5,79.53125 C31.27757,79.53126 30.962,79.21422 30.84375,78.84375 C30.72561,78.47323 30.53699,77.91132 30.4375,77.59375 C30.28863,77.11879 30.19867,77.13329 29.75,77.75 C29.45002,78.16231 29.25467,78.79633 29.34375,79.125 C29.43273,79.45364 29.64588,80.1174 29.78125,80.59375 C29.9783,81.28729 29.8627,81.43748 29.25,81.4375 C28.82917,81.4375 28.24329,81.09794 27.9375,80.65625 C27.10092,79.44806 25.78125,80.26792 25.78125,82 C25.78127,83.72051 25.0316,84.32853 23.90625,83.53125 C23.43635,83.19828 22.69473,83.00739 22.25,83.125 C21.46092,83.33376 21.13121,83.10102 18.875,80.78125 C17.82871,79.70551 17.56264,76.34996 18.46875,75.59375 C18.84084,75.28323 19.10083,75.24016 19.1875,75.5 C20.24654,78.67679 22.76865,80.04486 25.90625,79.15625 C27.36711,78.74256 27.74633,78.41424 28.625,76.78125 C29.47886,75.19446 29.6068,74.50598 29.5,72.59375 C29.42952,71.3325 29.50049,70.28085 29.625,70.28125 L29.625,70.28125 Z M89.3125,70.6875 C89.10325,70.68751 88.9375,70.85078 88.9375,71.0625 C88.93752,71.27423 89.1032,71.43748 89.3125,71.4375 C89.52184,71.4375 89.71875,71.2742 89.71875,71.0625 C89.71876,70.85081 89.52179,70.68749 89.3125,70.6875 L89.3125,70.6875 Z M118.46875,71.1875 L118.90625,72.15625 C119.46097,73.34524 118.81983,75.03551 117.71875,75.25 C117.12944,75.36482 117.02831,75.21727 117.1875,74.375 C117.36045,73.46 117.29999,73.33267 116.40625,73.4375 C115.58835,73.53344 115.34781,73.78684 115.25,74.8125 C115.1604,75.75174 114.99081,76.09374 114.4375,76.09375 C113.54781,76.09374 113.52579,75.94768 114.28125,74.78125 C114.60332,74.28407 114.81042,73.6722 114.75,73.4375 C114.68959,73.2028 115.50704,72.59462 116.5625,72.09375 L118.46875,71.1875 L118.46875,71.1875 Z M24.9375,71.34375 C24.68784,71.35257 24.32516,71.41566 23.875,71.53125 C23.03778,71.74623 22.34375,72.0953 22.34375,72.28125 C22.34375,72.7259 22.73837,72.69848 24.1875,72.1875 C25.48266,71.73077 25.68652,71.31722 24.9375,71.34375 L24.9375,71.34375 Z M125.46875,71.4375 C125.66129,71.39714 125.90838,71.59303 126.28125,71.96875 C126.55777,72.2475 127.29941,72.77551 127.875,73.15625 C128.71499,73.71191 128.90625,74.16159 128.90625,75.34375 C128.90626,77.00334 128.24603,77.66424 127.5625,76.71875 C127.15574,76.1559 127.04121,76.17682 126.65625,77.03125 C126.40464,77.59002 125.91852,77.96873 125.46875,77.96875 C125.04565,77.96877 124.71875,78.16329 124.71875,78.375 C124.71874,78.80794 123.85774,78.89357 123.46875,78.5 C123.063,78.08959 123.17161,73.45139 123.59375,73.1875 C124.02407,72.91847 124.14939,73.2847 124.53125,75.5 C124.91751,77.74028 125.44506,76.11158 125.1875,73.46875 C125.06119,72.17277 125.14797,71.50475 125.46875,71.4375 L125.46875,71.4375 Z M67.15625,72.96875 C66.96846,73.063 66.95455,73.57824 67.21875,74.28125 C67.68949,75.53372 68.5568,75.67405 68.1875,74.4375 C68.04521,73.96116 67.77606,73.41635 67.59375,73.21875 C67.45375,73.06703 67.34191,72.98004 67.25,72.96875 C67.21555,72.96452 67.18309,72.95529 67.15625,72.96875 L67.15625,72.96875 Z M25.53125,73.125 C25.37646,73.11507 25.17444,73.16842 24.9375,73.25 C24.46655,73.41215 23.64757,73.52288 23.125,73.5 C22.15533,73.45752 21.48371,74.03575 21.84375,74.625 C21.95374,74.80506 22.22629,74.88454 22.46875,74.78125 C22.71111,74.67802 23.55885,74.38396 24.34375,74.125 C25.12866,73.86603 25.78125,73.47371 25.78125,73.28125 C25.78127,73.18442 25.68611,73.13498 25.53125,73.125 L25.53125,73.125 Z M121.09375,73.96875 L122.25,73.96875 L122.34375,77 C122.46279,80.22951 122.25089,80.87047 121.21875,80.28125 C120.58085,79.91701 120.55564,79.48261 121.09375,75.96875 C121.18286,75.38655 121.10786,74.93749 120.90625,74.9375 C120.70463,74.93749 120.44179,75.58861 120.3125,76.40625 C119.96529,78.6028 119.56928,79.10905 118.8125,78.34375 C118.25507,77.78012 118.28225,77.57263 119.09375,75.84375 C119.86242,74.20601 120.10773,73.96874 121.09375,73.96875 L121.09375,73.96875 Z M25.1875,75.65625 C24.96415,75.68127 24.71377,75.74855 24.4375,75.8125 C23.504,76.02856 22.85248,76.37214 22.96875,76.5625 C23.15991,76.87527 25.17096,76.60668 25.875,76.1875 C26.41285,75.86733 26.29943,75.68345 25.78125,75.65625 C25.62579,75.64808 25.41085,75.63123 25.1875,75.65625 L25.1875,75.65625 Z M67.40625,76.15625 C67.32842,76.18525 67.26888,76.38315 67.28125,76.6875 C67.29946,77.13589 67.40975,77.24454 67.53125,76.9375 C67.64111,76.65963 67.62647,76.3154 67.5,76.1875 C67.46841,76.15552 67.43229,76.14658 67.40625,76.15625 L67.40625,76.15625 Z M115.90625,76.15625 C115.94719,76.14244 115.96515,76.16088 116,76.15625 C116.24453,76.12378 116.35479,76.30352 116.28125,76.6875 C116.20895,77.06482 115.90654,77.40516 115.625,77.5 C115.29748,77.61032 115.16587,77.43881 115.25,77 C115.32222,76.62268 115.62463,76.2511 115.90625,76.15625 L115.90625,76.15625 Z M116.9375,78.125 C117.04694,78.12622 117.09043,78.24423 117.1875,78.5 C117.46914,79.24251 116.54757,80.14057 116.15625,79.5 C116.00824,79.25769 116.12741,78.81366 116.4375,78.5 C116.68653,78.2481 116.82817,78.12378 116.9375,78.125 L116.9375,78.125 Z M66.25,78.375 C66.00208,78.36013 65.58902,78.58289 65.0625,79.03125 C64.62734,79.40172 63.73717,80.01435 63.09375,80.375 C62.45031,80.73562 61.90625,81.21592 61.90625,81.4375 C61.90622,81.65903 62.10494,81.84374 62.34375,81.84375 C62.88716,81.84375 66.5,79.10289 66.5,78.6875 C66.49999,78.49943 66.39867,78.38393 66.25,78.375 L66.25,78.375 Z M84.71875,81.4375 C84.50947,81.4375 84.43313,81.63203 84.5625,81.84375 C84.69178,82.05544 84.9782,82.21873 85.1875,82.21875 C85.39682,82.21875 85.47312,82.05543 85.34375,81.84375 C85.21441,81.63204 84.92804,81.43748 84.71875,81.4375 L84.71875,81.4375 Z M68.78125,82.84375 L68.0625,83.65625 C67.55942,84.2025 66.98646,84.38033 66.3125,84.25 C65.35158,84.06418 64.95365,84.78961 65.625,85.46875 C65.95405,85.80145 67.61317,85.40467 68.28125,84.84375 C68.54404,84.62313 68.78125,84.09365 68.78125,83.65625 L68.78125,82.84375 L68.78125,82.84375 Z M79.0625,83.40625 C78.97384,83.40241 78.89762,83.44548 78.84375,83.5 C78.53805,83.80925 83.36594,89.72928 86.375,92.71875 C89.88497,96.20575 91.05674,96.67129 88.21875,93.46875 C87.14012,92.25143 84.97238,89.70407 83.40625,87.75 C81.13683,84.91828 79.68374,83.43307 79.0625,83.40625 L79.0625,83.40625 Z M25.53125,85.15625 C25.74322,85.18791 25.80642,85.45884 25.9375,86.0625 C26.20504,87.29449 25.59353,96.37335 24.96875,100.34375 C24.75218,101.71986 24.16865,104.33358 23.625,106.1875 C23.08145,108.0414 22.75148,109.68717 22.90625,109.84375 C23.25617,110.19762 25.61851,107.53968 28.15625,104 C28.71101,103.22637 29.59375,103.46016 29.59375,104.375 C29.59376,104.67263 29.34702,105.65535 29.0625,106.5625 C28.77787,107.46963 28.3565,108.90316 28.125,109.75 C27.45857,112.1874 24.82836,115.92578 22.5625,117.65625 C20.20812,119.45436 19.94946,120.08653 19.96875,124.5625 C19.99261,130.09358 21.76264,133.69438 25.78125,136.4375 C28.18861,138.08074 28.30551,138.13186 30.71875,137.96875 C33.45255,137.78394 36.41828,136.62904 37.8125,135.21875 C38.3705,134.65429 38.96603,133.19303 39.40625,131.4375 C39.86209,129.61929 40.34748,128.54408 40.71875,128.46875 C41.78566,128.25235 41.82711,129.15269 40.8125,132.15625 C39.48729,136.07931 37.89053,137.81376 34.59375,138.84375 C33.26037,139.26035 31.10077,139.59374 29.8125,139.59375 C27.67039,139.59376 27.25808,139.4497 24.9375,137.875 C21.99088,135.8754 20.86125,134.50498 19.5625,131.3125 C17.99317,127.45509 17.87785,121.7381 19.28125,116.46875 C19.47863,115.72777 20.28889,112.87717 21.03125,110.125 C23.19171,102.11462 24.25,95.53498 24.25,90.28125 C24.25003,86.15725 24.31015,85.66901 24.96875,85.3125 C25.20458,85.18486 25.40403,85.13725 25.53125,85.15625 L25.53125,85.15625 Z M70,85.3125 C69.82444,85.31251 69.6368,86.35474 69.625,87.625 C69.60793,89.45168 69.75792,89.90624 70.21875,89.90625 C70.69298,89.90626 70.72817,89.60983 70.53125,88.15625 C70.39809,87.17404 70.3125,86.13176 70.3125,85.84375 C70.31252,85.55573 70.17557,85.31249 70,85.3125 L70,85.3125 Z M74.125,91.0625 C73.6625,91.06249 73.2249,92.49871 73.53125,93 C73.99668,93.76186 74.5,93.35476 74.5,92.21875 C74.50004,91.58361 74.32014,91.06249 74.125,91.0625 L74.125,91.0625 Z M85.90625,94.75 C84.8773,94.79797 82.86248,95.42268 83.0625,95.75 C83.17661,95.93671 83.63526,96.06999 84.09375,96.0625 C85.14919,96.04524 86.85373,95.11176 86.375,94.8125 C86.27724,94.75139 86.14375,94.73891 85.90625,94.75 L85.90625,94.75 Z M88.03125,96.84375 C86.944,96.84373 83.9922,97.70026 84.15625,97.96875 C84.42674,98.41137 88.3033,97.85064 88.46875,97.34375 C88.555,97.07913 88.37461,96.84373 88.03125,96.84375 L88.03125,96.84375 Z M89.84375,98.59375 C89.46264,98.58456 88.86421,98.74768 88.09375,99.125 C87.17489,99.57495 86.14605,99.93749 85.78125,99.9375 C85.41635,99.9375 85.21447,100.13203 85.34375,100.34375 C85.77371,101.04754 88.41691,100.76801 89.5,99.90625 C90.49193,99.11694 90.47893,98.60905 89.84375,98.59375 L89.84375,98.59375 Z M90.59375,102.625 C90.28231,102.62502 87.03125,104.59434 87.03125,104.78125 C87.03126,105.08509 87.80192,104.92387 89.3125,104.3125 C90.15389,103.97194 90.84375,103.45081 90.84375,103.15625 C90.84378,102.86165 90.71339,102.62499 90.59375,102.625 L90.59375,102.625 Z M25.65625,110.5 C25.18199,110.53825 21.21875,114.78129 21.21875,115.28125 C21.21878,116.05917 21.90327,115.72663 23.25,114.21875 C24.87803,112.39595 25.96533,110.74938 25.71875,110.5 C25.71106,110.49218 25.67153,110.49878 25.65625,110.5 L25.65625,110.5 Z M79.375,113.5 C79.17732,113.5068 79.24968,113.86688 79.5625,114.65625 C79.8416,115.36059 80.21517,116.23282 80.375,116.65625 C80.53493,117.07967 80.72865,117.25361 80.8125,117.03125 C81.03739,116.43466 80.00853,113.67147 79.5,113.5 C79.46151,113.48702 79.4032,113.49903 79.375,113.5 L79.375,113.5 Z M76.6875,116.09375 C76.13529,116.09376 76.3587,117.63749 77.15625,119.21875 C77.58946,120.07766 78.06317,120.68819 78.1875,120.5625 C78.48183,120.26469 77.082,116.09374 76.6875,116.09375 L76.6875,116.09375 Z M74,117 C73.66974,117.07555 73.63604,119.31925 74,119.6875 C74.14304,119.83218 74.41125,119.8096 74.59375,119.625 C74.96965,119.24482 74.57757,117.35325 74.0625,117.03125 C74.038,117.01589 74.02202,116.99495 74,117 L74,117 Z M71.75,117.40625 C71.57098,117.39757 71.4375,117.77389 71.4375,118.375 C71.43752,119.02263 71.6032,119.5625 71.8125,119.5625 C72.02178,119.56249 72.21875,119.14175 72.21875,118.625 C72.21872,118.10822 72.02179,117.56833 71.8125,117.4375 C71.78466,117.42013 71.77558,117.40748 71.75,117.40625 L71.75,117.40625 Z" id="path9106" fill="#800000" sketch:type="MSShapeGroup"></path>
    </g>
</svg>